<svg width="316" height="24" viewBox="0 0 316 24" fill="none" xmlns="http://www.w3.org/2000/svg">
<path d="M21.3 10.08C21.019 9.74269 20.6674 9.47113 20.27 9.28452C19.8726 9.0979 19.439 9.0008 19 9.00004H14.44L15 7.57004C15.2329 6.94393 15.3105 6.27065 15.2261 5.60797C15.1416 4.94528 14.8977 4.31297 14.5152 3.76527C14.1327 3.21758 13.623 2.77084 13.0299 2.46339C12.4369 2.15593 11.778 1.99694 11.11 2.00004C10.9176 2.00045 10.7295 2.05632 10.5681 2.16097C10.4067 2.26561 10.2789 2.41459 10.2 2.59004L7.35 9.00004H5C4.20435 9.00004 3.44129 9.31611 2.87868 9.87872C2.31607 10.4413 2 11.2044 2 12V19C2 19.7957 2.31607 20.5588 2.87868 21.1214C3.44129 21.684 4.20435 22 5 22H17.73C18.4318 21.9998 19.1113 21.7535 19.6503 21.3041C20.1893 20.8546 20.5537 20.2304 20.68 19.54L21.95 12.54C22.0286 12.1074 22.011 11.6628 21.8987 11.2377C21.7864 10.8126 21.582 10.4174 21.3 10.08ZM7 20H5C4.73478 20 4.48043 19.8947 4.29289 19.7072C4.10536 19.5196 4 19.2653 4 19V12C4 11.7348 4.10536 11.4805 4.29289 11.2929C4.48043 11.1054 4.73478 11 5 11H7V20ZM20 12.18L18.73 19.18C18.6874 19.413 18.5635 19.6233 18.3804 19.7734C18.1973 19.9236 17.9668 20.0039 17.73 20H9V10.21L11.72 4.09004C12 4.17167 12.26 4.31045 12.4837 4.49763C12.7073 4.6848 12.8897 4.91631 13.0194 5.17754C13.1491 5.43876 13.2232 5.72403 13.2371 6.01535C13.2509 6.30666 13.2043 6.59768 13.1 6.87004L12.57 8.30005C12.4571 8.6023 12.4189 8.92739 12.4589 9.24758C12.4988 9.56776 12.6156 9.87353 12.7993 10.1388C12.983 10.404 13.2282 10.6209 13.5139 10.7709C13.7996 10.9209 14.1173 10.9995 14.44 11H19C19.1469 10.9998 19.2921 11.0319 19.4252 11.0942C19.5582 11.1564 19.676 11.2472 19.77 11.36C19.8663 11.4714 19.9369 11.6026 19.9767 11.7443C20.0164 11.8861 20.0244 12.0349 20 12.18Z" fill="black"/>
<path d="M48.999 2H36.269C35.5672 2.00023 34.8877 2.24651 34.3487 2.69598C33.8097 3.14544 33.4453 3.76965 33.319 4.46L32.049 11.46C31.9699 11.8924 31.9867 12.337 32.0984 12.7622C32.2101 13.1874 32.4139 13.5828 32.6953 13.9206C32.9768 14.2583 33.329 14.53 33.7271 14.7166C34.1252 14.9031 34.5594 14.9999 34.999 15H39.559L38.999 16.43C38.7661 17.0561 38.6885 17.7294 38.7729 18.3921C38.8574 19.0548 39.1013 19.6871 39.4838 20.2348C39.8663 20.7825 40.376 21.2292 40.9691 21.5367C41.5621 21.8441 42.221 22.0031 42.889 22C43.0814 21.9996 43.2695 21.9437 43.4309 21.8391C43.5923 21.7344 43.7201 21.5854 43.799 21.41L46.649 15H48.999C49.7947 15 50.5577 14.6839 51.1203 14.1213C51.6829 13.5587 51.999 12.7956 51.999 12V5C51.999 4.20435 51.6829 3.44129 51.1203 2.87868C50.5577 2.31607 49.7947 2 48.999 2ZM44.999 13.79L42.279 19.91C42.0007 19.8258 41.7426 19.6855 41.5205 19.4978C41.2985 19.31 41.1173 19.0788 40.988 18.8183C40.8587 18.5579 40.7841 18.2737 40.7688 17.9834C40.7535 17.693 40.7978 17.4026 40.899 17.13L41.429 15.7C41.5419 15.3977 41.5801 15.0727 41.5401 14.7525C41.5002 14.4323 41.3834 14.1265 41.1997 13.8613C41.016 13.596 40.7708 13.3791 40.4851 13.2292C40.1994 13.0792 39.8817 13.0006 39.559 13H34.999C34.8521 13.0002 34.7069 12.9681 34.5738 12.9059C34.4408 12.8437 34.323 12.7529 34.229 12.64C34.1327 12.5287 34.0621 12.3975 34.0223 12.2557C33.9826 12.114 33.9746 11.9652 33.999 11.82L35.269 4.82C35.3116 4.58704 35.4355 4.37676 35.6186 4.2266C35.8017 4.07644 36.0322 3.99614 36.269 4H44.999V13.79ZM49.999 12C49.999 12.2652 49.8936 12.5196 49.7061 12.7071C49.5186 12.8946 49.2642 13 48.999 13H46.999V4H48.999C49.2642 4 49.5186 4.10536 49.7061 4.29289C49.8936 4.48043 49.999 4.73478 49.999 5V12Z" fill="black"/>
</svg>
