<svg width="208" height="20" viewBox="0 0 208 20" fill="none" xmlns="http://www.w3.org/2000/svg">
<path d="M19.3 8.08004C19.019 7.74269 18.6674 7.47113 18.27 7.28452C17.8726 7.0979 17.439 7.0008 17 7.00004H12.44L13 5.57004C13.2329 4.94393 13.3105 4.27065 13.2261 3.60797C13.1416 2.94528 12.8977 2.31297 12.5152 1.76527C12.1327 1.21758 11.623 0.770841 11.0299 0.463388C10.4369 0.155934 9.77803 -0.00305943 9.11 4.45912e-05C8.91764 0.000445953 8.72948 0.0563198 8.56807 0.160967C8.40666 0.265615 8.27887 0.414594 8.2 0.590044L5.35 7.00004H3C2.20435 7.00004 1.44129 7.31611 0.87868 7.87872C0.316071 8.44133 0 9.2044 0 10V17C0 17.7957 0.316071 18.5588 0.87868 19.1214C1.44129 19.684 2.20435 20 3 20H15.73C16.4318 19.9998 17.1113 19.7535 17.6503 19.3041C18.1893 18.8546 18.5537 18.2304 18.68 17.54L19.95 10.54C20.0286 10.1074 20.011 9.66283 19.8987 9.23772C19.7864 8.81262 19.582 8.4174 19.3 8.08004ZM5 18H3C2.73478 18 2.48043 17.8947 2.29289 17.7072C2.10536 17.5196 2 17.2653 2 17V10C2 9.73483 2.10536 9.48047 2.29289 9.29294C2.48043 9.1054 2.73478 9.00004 3 9.00004H5V18ZM18 10.18L16.73 17.18C16.6874 17.413 16.5635 17.6233 16.3804 17.7734C16.1973 17.9236 15.9668 18.0039 15.73 18H7V8.21004L9.72 2.09004C9.99998 2.17167 10.26 2.31045 10.4837 2.49763C10.7073 2.6848 10.8897 2.91631 11.0194 3.17754C11.1491 3.43876 11.2232 3.72403 11.2371 4.01535C11.2509 4.30666 11.2043 4.59768 11.1 4.87004L10.57 6.30005C10.4571 6.6023 10.4189 6.92739 10.4589 7.24758C10.4988 7.56776 10.6156 7.87353 10.7993 8.13878C10.983 8.40404 11.2282 8.62091 11.5139 8.77088C11.7996 8.92086 12.1173 8.99948 12.44 9.00004H17C17.1469 8.99981 17.2921 9.03194 17.4252 9.09416C17.5582 9.15638 17.676 9.24716 17.77 9.36004C17.8663 9.47137 17.9369 9.60259 17.9767 9.74434C18.0164 9.88608 18.0244 10.0349 18 10.18Z" fill="black"/>
<path d="M44.9973 0H32.2673C31.5655 0.000233904 30.886 0.246509 30.347 0.695976C29.808 1.14544 29.4436 1.76965 29.3173 2.46L28.0473 9.46C27.9682 9.89244 27.985 10.337 28.0967 10.7622C28.2084 11.1874 28.4122 11.5828 28.6936 11.9206C28.9751 12.2583 29.3273 12.53 29.7254 12.7166C30.1235 12.9031 30.5577 12.9999 30.9973 13H35.5573L34.9973 14.43C34.7644 15.0561 34.6868 15.7294 34.7712 16.3921C34.8557 17.0548 35.0996 17.6871 35.4821 18.2348C35.8646 18.7825 36.3743 19.2292 36.9674 19.5367C37.5604 19.8441 38.2193 20.0031 38.8873 20C39.0797 19.9996 39.2678 19.9437 39.4292 19.8391C39.5906 19.7344 39.7184 19.5854 39.7973 19.41L42.6473 13H44.9973C45.7929 13 46.556 12.6839 47.1186 12.1213C47.6812 11.5587 47.9973 10.7956 47.9973 10V3C47.9973 2.20435 47.6812 1.44129 47.1186 0.87868C46.556 0.316071 45.7929 0 44.9973 0ZM40.9973 11.79L38.2773 17.91C37.999 17.8258 37.7409 17.6855 37.5188 17.4978C37.2968 17.31 37.1156 17.0788 36.9863 16.8183C36.857 16.5579 36.7824 16.2737 36.7671 15.9834C36.7518 15.693 36.7961 15.4026 36.8973 15.13L37.4273 13.7C37.5402 13.3977 37.5784 13.0727 37.5384 12.7525C37.4985 12.4323 37.3817 12.1265 37.198 11.8613C37.0142 11.596 36.7691 11.3791 36.4834 11.2292C36.1977 11.0792 35.88 11.0006 35.5573 11H30.9973C30.8504 11.0002 30.7052 10.9681 30.5721 10.9059C30.4391 10.8437 30.3213 10.7529 30.2273 10.64C30.131 10.5287 30.0604 10.3975 30.0206 10.2557C29.9809 10.114 29.9729 9.96518 29.9973 9.82L31.2673 2.82C31.3099 2.58704 31.4338 2.37676 31.6169 2.2266C31.8 2.07644 32.0305 1.99614 32.2673 2H40.9973V11.79ZM45.9973 10C45.9973 10.2652 45.8919 10.5196 45.7044 10.7071C45.5169 10.8946 45.2625 11 44.9973 11H42.9973V2H44.9973C45.2625 2 45.5169 2.10536 45.7044 2.29289C45.8919 2.48043 45.9973 2.73478 45.9973 3V10Z" fill="black"/>
</svg>
